# Blender 5.1.1
# www.blender.org
mtllib enemy_body.mtl
o Cube
v -1.000000 0.780847 -0.780847
v -0.780847 1.000000 -0.780847
v -0.780847 0.780847 -1.000000
v -0.780847 -1.000000 -0.780847
v -1.000000 -0.780847 -0.780847
v -0.780847 -0.780847 -1.000000
v 0.780847 0.780847 -1.000000
v 0.780847 1.000000 -0.780847
v 1.000000 0.780847 -0.780847
v 0.780847 -0.780847 -1.000000
v 1.000000 -0.780847 -0.780847
v 0.780847 -1.000000 -0.780847
v -1.000000 0.780847 0.780847
v -0.780847 0.780847 1.000000
v -0.780847 1.000000 0.780847
v -0.780847 -0.780847 1.000000
v -1.000000 -0.780847 0.780847
v -0.780847 -1.000000 0.780847
v 0.780847 0.780847 1.000000
v 1.000000 0.780847 0.780847
v 0.780847 1.000000 0.780847
v 0.780847 -1.000000 0.780847
v 1.000000 -0.780847 0.780847
v 0.780847 -0.780847 1.000000
v 0.000000 1.000000 -0.510389
v 0.510389 1.000000 0.510389
v 0.000000 1.190970 -0.510389
v -0.510389 1.000000 0.510389
v 0.510389 1.190970 0.510389
v -0.510389 1.190970 0.510389
v -0.780847 0.663458 -1.210215
v -0.780847 -0.168903 -1.210215
v 0.780847 -0.168903 -1.210215
v 0.780847 0.663458 -1.210215
v -0.780847 0.663458 -1.430578
v -0.780847 -0.168903 -1.430578
v 0.780847 -0.168903 -1.430578
v 0.780847 0.663458 -1.430578
v 0.259151 -0.526985 1.000000
v -0.259151 -0.526985 1.000000
v 0.259151 -0.008683 1.000000
v -0.259151 -0.008683 1.000000
v 0.259151 -0.526985 1.166873
v -0.259151 -0.526985 1.166873
v 0.259151 -0.008683 1.166873
v -0.259151 -0.008683 1.166873
vn -0.5774 0.5774 -0.5774
vn -0.5774 -0.5774 -0.5774
vn 0.5774 0.5774 -0.5774
vn 0.5774 -0.5774 -0.5774
vn -0.5774 0.5774 0.5774
vn -0.5774 -0.5774 0.5774
vn 0.5774 0.5774 0.5774
vn 0.5774 -0.5774 0.5774
vn -0.0000 -0.7071 0.7071
vn -0.7071 -0.7071 -0.0000
vn -0.7071 -0.0000 -0.7071
vn 0.7071 -0.0000 0.7071
vn 0.7071 -0.0000 -0.7071
vn -0.7071 -0.0000 0.7071
vn 0.7071 0.7071 -0.0000
vn -0.0000 0.7071 -0.7071
vn 0.7071 -0.7071 -0.0000
vn -0.0000 0.7071 0.7071
vn -0.7071 0.7071 -0.0000
vn -0.0000 -0.7071 -0.7071
vn -1.0000 -0.0000 -0.0000
vn 1.0000 -0.0000 -0.0000
vn -0.0000 1.0000 -0.0000
vn -0.0000 -1.0000 -0.0000
vn -0.0000 -0.0000 1.0000
vn -0.8944 -0.0000 -0.4472
vn 0.8944 -0.0000 -0.4472
vn -0.0000 -0.3249 -0.9458
vn -0.0000 0.8731 -0.4876
vn -0.0000 -0.0000 -1.0000
vt 0.597606 0.472606
vt 0.638697 0.500000
vt 0.597606 0.520546
vt 0.347606 0.527394
vt 0.375000 0.486303
vt 0.395546 0.527394
vt 0.597606 0.729454
vt 0.638697 0.750000
vt 0.597606 0.777394
vt 0.395546 0.722606
vt 0.375000 0.763697
vt 0.347606 0.722606
vt 0.597606 0.270546
vt 0.597606 0.222606
vt 0.625000 0.240869
vt 0.125000 0.527394
vt 0.152394 0.500000
vt 0.152394 0.527394
vt 0.597606 0.027394
vt 0.597606 0.000000
vt 0.625000 0.027394
vt 0.152394 0.722606
vt 0.152394 0.750000
vt 0.125000 0.722606
vt 0.402394 0.000000
vt 0.402394 0.027394
vt 0.402394 0.277394
vt 0.402394 0.222606
vt 0.625000 0.972606
vt 0.597606 0.972606
vt 0.402394 0.972606
vt 0.847606 0.527394
vt 0.847606 0.722606
s 0
usemtl Material
f 1/1/1 2/2/1 3/3/1
f 4/4/2 5/5/2 6/6/2
f 7/7/3 8/8/3 9/9/3
f 10/10/4 11/11/4 12/12/4
f 13/13/5 14/14/5 15/15/5
f 16/16/6 17/17/6 18/18/6
f 19/19/7 20/20/7 21/21/7
f 22/22/8 23/23/8 24/24/8
f 18/18/9 22/22/9 24/24/9 16/16/9
f 4/4/10 18/18/10 17/17/10 5/5/10
f 3/3/11 6/6/11 5/5/11 1/1/11
f 23/25/12 20/20/12 19/19/12 24/26/12
f 9/9/13 11/11/13 10/10/13 7/7/13
f 13/13/14 17/27/14 16/28/14 14/14/14
f 8/8/15 21/29/15 20/30/15 9/9/15
f 2/2/16 8/8/16 7/7/16 3/3/16
f 22/22/17 12/12/17 11/11/17 23/23/17
f 21/21/18 15/15/18 14/14/18 19/19/18
f 15/15/19 2/2/19 1/1/19 13/13/19
f 12/12/20 4/4/20 6/6/20 10/10/20
f 17/27/21 13/13/21 1/1/21 5/5/21
f 7/7/22 10/10/22 33/10/22 34/7/22
f 2/2/23 15/15/23 28/15/23 25/2/23
f 18/18/24 4/4/24 12/12/24 22/22/24
f 11/11/22 9/9/22 20/30/22 23/31/22
f 14/14/25 16/28/25 40/28/25 42/14/25
f 25/2/26 28/15/26 30/15/26 27/2/26
f 15/15/23 21/21/23 26/21/23 28/15/23
f 8/8/23 2/2/23 25/8/23
f 21/29/23 8/8/23 25/8/23 26/29/23
f 27/2/23 30/32/23 29/33/23
f 28/15/25 26/21/25 29/21/25 30/15/25
f 26/29/27 25/8/27 27/8/27 29/29/27
f 33/10/24 32/6/24 36/6/24 37/10/24
f 10/10/28 6/6/28 32/6/28 33/10/28
f 6/6/21 3/3/21 31/3/21 32/6/21
f 3/3/29 7/7/29 34/7/29 31/3/29
f 36/6/30 35/3/30 38/7/30 37/10/30
f 34/7/22 33/10/22 37/10/22 38/7/22
f 31/3/23 34/7/23 38/7/23 35/3/23
f 32/6/21 31/3/21 35/3/21 36/6/21
f 42/14/21 40/28/21 44/28/21 46/14/21
f 24/26/25 19/19/25 41/19/25 39/26/25
f 16/16/25 24/24/25 39/24/25 40/16/25
f 19/19/25 14/14/25 42/14/25 41/19/25
f 43/26/25 45/19/25 46/14/25 44/28/25
f 40/16/24 39/24/24 43/24/24 44/16/24
f 41/19/23 42/14/23 46/14/23 45/19/23
f 39/26/22 41/19/22 45/19/22 43/26/22
