# Blender 4.3.2
# www.blender.org
mtllib airship.mtl
o Cube.001
v -0.280873 0.164335 -2.351671
v 0.280873 0.164335 -2.351671
v -0.345758 0.570648 1.236808
v 0.345758 0.570648 1.236808
v -0.280873 -0.164335 -2.351671
v 0.280873 -0.164335 -2.351671
v -0.345758 -0.570648 1.236808
v 0.345758 -0.570648 1.236808
v 0.000000 0.331314 -2.993948
v -0.000000 -0.934578 1.236808
v 0.000000 0.934578 1.236808
v -0.000000 -0.331314 -2.993948
v -0.000000 -0.792659 1.236808
v -0.293254 -0.483994 1.236808
v 0.000000 0.792659 1.236808
v 0.293254 0.483994 1.236808
v -0.293253 0.483994 1.236808
v 0.293253 -0.483994 1.236808
v -0.000000 -0.792659 0.809094
v -0.293254 -0.483994 0.809094
v 0.000000 0.792659 0.809094
v 0.293254 0.483994 0.809094
v -0.293253 0.483994 0.809094
v 0.293253 -0.483994 0.809094
v 0.000000 0.395457 -1.779821
v 0.280168 0.326706 -1.437562
v 0.000000 0.716927 0.474681
v 0.280168 0.522994 0.474681
v -0.280168 0.326706 -1.437562
v -0.280168 0.522994 0.474681
v 1.000000 0.194705 -0.629704
v 1.000000 -0.194705 -0.629704
v 2.820825 0.194705 1.194232
v 2.820825 -0.194705 1.194232
v -1.000000 0.194705 -0.629704
v -1.000000 -0.194705 -0.629704
v -2.820825 0.194705 1.194232
v -2.820825 -0.194705 1.194232
v -1.000000 -0.014119 -0.933321
v -2.820825 -0.014119 0.890615
v 1.000000 -0.014119 -0.933321
v 1.000000 0.014119 -0.933321
v -2.820825 0.014119 0.890615
v 2.820825 0.014119 0.890615
v 2.820825 -0.014119 0.890615
v -1.000000 0.014119 -0.933321
v 0.000000 -0.227441 -0.370360
v 0.000000 0.227441 0.792291
v 0.000000 -0.227441 0.792291
v 0.000000 0.227441 -0.370360
v 0.000000 -0.014119 -0.933321
v 0.000000 0.014119 -0.933321
v -0.500000 -0.227441 -0.370360
v -1.058008 0.227441 0.830448
v -0.500000 -0.014119 -0.933321
v -1.058008 -0.227441 0.830448
v -0.500000 0.227441 -0.370360
v -0.500000 0.014119 -0.933321
v 1.058008 -0.227441 0.830448
v 0.500000 0.227441 -0.370360
v 0.500000 0.014119 -0.933321
v 0.500000 -0.227441 -0.370360
v 1.058008 0.227441 0.830448
v 0.500000 -0.014119 -0.933321
vn -0.9998 -0.0000 -0.0181
vn -0.0000 -0.0000 1.0000
vn -0.6995 -0.7080 -0.0972
vn 0.9998 -0.0000 -0.0181
vn 0.8193 0.5688 -0.0720
vn -0.9162 -0.0000 -0.4007
vn 0.9162 -0.0000 -0.4007
vn 0.5165 0.8515 -0.0905
vn 0.6995 -0.7080 -0.0972
vn -1.0000 -0.0000 -0.0000
vn 0.7250 -0.6888 -0.0000
vn -0.7250 -0.6888 -0.0000
vn -0.7250 0.6888 -0.0000
vn 1.0000 -0.0000 -0.0000
vn 0.7250 0.6888 -0.0000
vn -0.4755 0.8730 -0.1085
vn 0.4755 0.8730 -0.1085
vn -0.8193 0.5688 -0.0720
vn -0.6571 0.7373 -0.1566
vn -0.5165 0.8515 -0.0905
vn 0.6571 0.7373 -0.1566
vn -0.0300 0.9993 -0.0236
vn 0.2021 -0.0000 0.9794
vn -0.4558 0.7650 -0.4550
vn 0.0300 -0.9993 -0.0236
vn -0.4558 -0.7650 -0.4550
vn 0.4558 -0.7650 -0.4550
vn -0.7077 -0.0000 -0.7065
vn 0.7077 -0.0000 -0.7065
vn -0.0000 -0.0000 -1.0000
vn 0.4558 0.7650 -0.4550
vn 0.0773 -0.9076 -0.4126
vn -0.0773 0.9076 -0.4126
vn -0.0000 0.9351 -0.3543
vn -0.0000 -0.9351 -0.3543
vn -0.0000 -1.0000 -0.0000
vn -0.0360 -0.0000 0.9994
vn -0.0000 1.0000 -0.0000
vn -0.0300 -0.9993 -0.0236
vn 0.0773 0.9076 -0.4126
vn 0.0360 -0.0000 0.9994
vn 0.0300 0.9993 -0.0236
vn -0.2021 -0.0000 0.9794
vn -0.0773 -0.9076 -0.4126
vt 0.137805 0.524755
vt 0.039324 0.539916
vt 0.000110 0.134809
vt 0.174514 0.330364
vt 0.015626 0.893216
vt 0.153948 0.710078
vt 0.148154 0.757746
vt 0.000110 0.931058
vt 0.103913 0.613873
vt 0.161282 0.648957
vt 0.330533 0.498366
vt 0.236278 0.540105
vt 0.217848 0.330738
vt 0.336901 0.198021
vt 0.216797 0.465086
vt 0.214073 0.364396
vt 0.181116 0.523058
vt 0.211271 0.634309
vt 0.187538 0.477482
vt 0.247629 0.926788
vt 0.195576 0.356281
vt 0.165587 0.316782
vt 0.195675 0.350661
vt 0.326743 0.206889
vt 0.224524 0.320703
vt 0.212933 0.310182
vt 0.314899 0.196319
vt 0.187060 0.303115
vt 0.195018 0.339477
vt 0.015824 0.148603
vt 0.254890 0.974273
vt 0.228428 0.071448
vt 0.255817 0.000110
vt 0.257246 0.108576
vt 0.211502 0.999890
vt 0.133612 0.867962
vt 0.034069 0.132265
vt 0.024864 0.956255
vt 0.161772 0.462220
vt 0.174946 0.363237
vt 0.195508 0.359620
vt 0.475424 0.429875
vt 0.464947 0.453150
vt 0.337121 0.445260
vt 0.414179 0.395450
vt 0.731205 0.122910
vt 0.623696 0.087791
vt 0.659789 0.003511
vt 0.751824 0.033575
vt 0.485261 0.491484
vt 0.350117 0.493548
vt 0.635048 0.444674
vt 0.616150 0.427567
vt 0.662033 0.308455
vt 0.686455 0.396719
vt 0.643330 0.511975
vt 0.751824 0.581743
vt 0.712499 0.613243
vt 0.603836 0.530979
vt 0.573194 0.434965
vt 0.613361 0.311027
vt 0.503377 0.650357
vt 0.497165 0.648343
vt 0.538130 0.521963
vt 0.544342 0.523976
vt 0.566981 0.432952
vt 0.607103 0.309117
vt 0.565981 0.457218
vt 0.559768 0.455204
vt 0.536585 0.401387
vt 0.569998 0.278391
vt 0.708135 0.000110
vt 0.714809 0.002290
vt 0.648748 0.486842
vt 0.593942 0.506503
vt 0.511224 0.403966
vt 0.546743 0.449922
vt 0.493383 0.417031
vt 0.527261 0.464216
vt 0.507486 0.477791
vt 0.641772 0.465759
vt 0.586289 0.483528
vt 0.579407 0.460470
vt 0.551555 0.501723
vt 0.545343 0.499710
vt 0.552556 0.477457
vt 0.558768 0.479471
vt 0.702655 0.445930
vt 0.718846 0.495340
vt 0.698126 0.224174
vt 0.590617 0.189056
vt 0.607157 0.138424
vt 0.714665 0.173542
vt 0.456113 0.365249
vt 0.498153 0.335076
s 0
usemtl マテリアル
f 1/1/1 5/2/1 7/3/1 3/4/1
f 7/5/2 10/6/2 13/7/2 14/8/2
f 10/6/3 7/5/3 5/9/3 12/10/3
f 6/11/4 2/12/4 4/13/4 8/14/4
f 4/13/5 2/12/5 26/15/5 28/16/5
f 12/10/6 5/9/6 1/1/6 9/17/6
f 6/18/7 12/10/7 9/17/7 2/12/7
f 2/12/8 9/17/8 25/19/8 26/15/8
f 8/20/9 10/6/9 12/10/9 6/18/9
f 11/21/2 3/4/2 17/22/2 15/23/2
f 18/24/10 16/25/10 22/26/10 24/27/10
f 15/23/11 17/22/11 23/28/11 21/29/11
f 8/14/2 4/13/2 16/25/2 18/24/2
f 3/4/2 7/3/2 14/30/2 17/22/2
f 4/13/2 11/21/2 15/23/2 16/25/2
f 10/6/2 8/20/2 18/31/2 13/7/2
f 21/29/2 23/28/2 20/32/2 19/33/2
f 22/26/2 21/29/2 19/33/2 24/34/2
f 16/25/12 15/23/12 21/29/12 22/26/12
f 13/7/13 18/31/13 24/35/13 19/36/13
f 17/22/14 14/30/14 20/37/14 23/28/14
f 14/8/15 13/7/15 19/36/15 20/38/15
f 25/19/16 29/39/16 30/40/16 27/41/16
f 26/15/17 25/19/17 27/41/17 28/16/17
f 1/1/18 3/4/18 30/40/18 29/39/18
f 3/4/19 11/21/19 27/41/19 30/40/19
f 9/17/20 1/1/20 29/39/20 25/19/20
f 11/21/21 4/13/21 28/16/21 27/41/21
f 57/42/22 35/43/22 37/44/22 54/45/22
f 56/46/23 54/47/23 37/48/23 38/49/23
f 37/44/24 35/43/24 46/50/24 43/51/24
f 62/52/25 32/53/25 34/54/25 59/55/25
f 36/56/26 38/57/26 40/58/26 39/59/26
f 34/54/27 32/53/27 41/60/27 45/61/27
f 40/62/28 43/63/28 46/64/28 39/65/28
f 41/60/29 42/66/29 44/67/29 45/61/29
f 64/68/30 61/69/30 42/66/30 41/60/30
f 31/70/31 33/71/31 44/67/31 42/66/31
f 38/49/10 37/48/10 43/72/10 40/73/10
f 53/74/32 36/56/32 39/59/32 55/75/32
f 60/76/33 31/70/33 42/66/33 61/77/33
f 33/71/14 34/54/14 45/61/14 44/67/14
f 57/42/34 50/78/34 52/79/34 58/80/34
f 62/52/35 47/81/35 51/82/35 64/83/35
f 55/84/30 58/85/30 52/86/30 51/87/30
f 53/74/36 47/81/36 49/88/36 56/89/36
f 59/90/37 63/91/37 48/92/37 49/93/37
f 60/76/38 50/78/38 48/94/38 63/95/38
f 36/56/39 53/74/39 56/89/39 38/57/39
f 39/65/30 46/64/30 58/85/30 55/84/30
f 35/43/40 57/42/40 58/80/40 46/50/40
f 47/81/35 53/74/35 55/75/35 51/82/35
f 49/93/41 48/92/41 54/47/41 56/46/41
f 50/78/38 57/42/38 54/45/38 48/94/38
f 31/70/42 60/76/42 63/95/42 33/71/42
f 34/54/43 33/71/43 63/91/43 59/90/43
f 32/53/44 62/52/44 64/83/44 41/60/44
f 50/78/34 60/76/34 61/77/34 52/79/34
f 51/87/30 52/86/30 61/69/30 64/68/30
f 47/81/36 62/52/36 59/55/36 49/88/36
