# Blender 4.3.2
# www.blender.org
mtllib enemy_bullet.mtl
o Cube
v 1.000000 1.000000 0.125336
v 1.000000 -1.000000 0.125336
v 0.000000 0.000000 1.275228
v -1.000000 1.000000 0.125336
v -1.000000 -1.000000 0.125336
v 0.000000 -0.000000 -4.349726
vn -0.0000 0.7546 0.6562
vn -0.7546 -0.0000 0.6562
vn -0.0000 -0.7546 0.6562
vn 0.7546 -0.0000 0.6562
vn -0.0000 -0.9759 -0.2181
vn -0.0000 0.9759 -0.2181
vn 0.9759 -0.0000 -0.2181
vn -0.9759 -0.0000 -0.2181
vt 0.195315 0.740108
vt 0.408826 0.599999
vt 0.408826 0.832737
vt 0.000244 0.727688
vt 0.194827 0.599999
vt 0.194827 0.855376
vt 0.409314 0.740108
vt 0.622824 0.599999
vt 0.622824 0.832737
vt 0.623312 0.740108
vt 0.836823 0.599999
vt 0.836823 0.832737
vt 0.499756 0.599512
vt 0.250244 0.545097
vt 0.499756 0.000244
vt 0.500244 0.054658
vt 0.749756 0.000244
vt 0.749756 0.599512
vt 0.249756 0.599512
vt 0.000244 0.545097
vt 0.249756 0.000244
vt 0.750244 0.054658
vt 0.999756 0.000244
vt 0.999756 0.599512
s 0
usemtl Material
f 1/1/1 4/2/1 3/3/1
f 3/4/2 4/5/2 5/6/2
f 5/7/3 2/8/3 3/9/3
f 2/10/4 1/11/4 3/12/4
f 2/13/5 5/14/5 6/15/5
f 4/16/6 1/17/6 6/18/6
f 1/19/7 2/20/7 6/21/7
f 5/22/8 4/23/8 6/24/8
