# Blender 5.1.1
# www.blender.org
mtllib Guardian_leg.mtl
o leg
v 0.000000 -0.401892 -0.246445
v 0.000000 0.332038 -0.332038
v 0.213427 -0.401892 -0.123222
v 0.287553 0.332038 -0.166019
v 0.213427 -0.401892 0.123222
v 0.287553 0.332038 0.166019
v 0.000000 -0.401892 0.246445
v 0.000000 0.332038 0.332038
v -0.213427 -0.401892 0.123222
v -0.287553 0.332038 0.166019
v -0.213427 -0.401892 -0.123222
v -0.287553 0.332038 -0.166019
v 0.000000 -0.032725 -0.314019
v 0.271949 -0.032725 -0.157010
v 0.271949 -0.032725 0.157010
v 0.000000 -0.032725 0.314019
v -0.271949 -0.032725 0.157010
v -0.271949 -0.032725 -0.157010
v 0.000000 0.164827 -0.331524
v 0.287108 0.164827 -0.165762
v 0.287108 0.164827 0.165762
v 0.000000 0.164827 0.331524
v -0.287108 0.164827 0.165762
v -0.287108 0.164827 -0.165762
v 0.243598 -0.232818 -0.140642
v 0.243598 -0.232818 0.140642
v 0.000000 -0.232818 0.281283
v -0.243598 -0.232818 0.140642
v -0.243598 -0.232818 -0.140642
v 0.000000 -0.232818 -0.281283
v 0.109509 -0.396624 -0.189674
v 0.143777 0.332038 -0.249029
v 0.137049 -0.028219 -0.237375
v 0.143695 0.165582 -0.248887
v 0.123773 -0.226820 -0.214380
v -0.102344 -0.410127 -0.177265
v -0.143777 0.332038 -0.249029
v -0.134251 -0.039950 -0.232530
v -0.143222 0.163053 -0.248068
v -0.118716 -0.242190 -0.205622
v 0.109509 -0.396624 0.189674
v 0.143777 0.332038 0.249029
v 0.137049 -0.028219 0.237375
v 0.143695 0.165582 0.248887
v 0.123773 -0.226820 0.214380
v 0.204689 -0.410127 0.000000
v 0.287553 0.332038 0.000000
v 0.268503 -0.039950 0.000000
v 0.286444 0.163053 0.000000
v 0.237431 -0.242190 0.000000
v -0.102344 -0.410127 0.177265
v -0.143777 0.332038 0.249029
v -0.134251 -0.039950 0.232530
v -0.143222 0.163053 0.248068
v -0.118716 -0.242190 0.205622
v -0.219017 -0.396624 0.000000
v -0.287553 0.332038 0.000000
v -0.274097 -0.028219 0.000000
v -0.287390 0.165582 0.000000
v -0.247545 -0.226820 0.000000
v 0.132547 -0.390502 -0.229578
v 0.239631 -0.395417 -0.160674
v 0.270252 -0.225446 -0.181206
v 0.246407 -0.405483 0.000000
v 0.256213 -0.397622 0.125838
v 0.338023 0.332038 0.000000
v 0.338023 0.332038 -0.166019
v 0.285871 -0.225898 0.165048
v 0.132547 -0.390502 0.229578
v 0.019333 -0.395417 0.287864
v 0.169011 0.332038 0.292736
v 0.331261 0.332038 0.191254
v 0.021803 -0.225446 0.324648
v -0.265094 -0.390502 0.000000
v -0.253298 -0.395813 -0.146242
v -0.289585 -0.225534 -0.157679
v -0.123204 -0.405483 -0.213395
v 0.000000 -0.395813 -0.292484
v -0.169011 0.332038 -0.292736
v -0.331261 0.332038 -0.191254
v 0.008239 -0.225534 -0.329628
v 0.024096 -0.027203 -0.358796
v 0.331110 0.165667 -0.191166
v 0.298678 -0.027203 -0.200266
v 0.335066 0.165615 0.182443
v 0.316135 -0.027536 0.182520
v -0.312563 0.165465 0.209576
v -0.297713 -0.029064 0.199619
v -0.325050 -0.023142 0.000000
v -0.322774 -0.027203 -0.158530
v -0.158963 -0.035853 0.275332
v 0.162525 -0.023142 0.281502
v 0.024096 -0.027203 0.358796
v 0.317926 -0.035853 0.000000
v 0.162525 -0.023142 -0.281502
v 0.025224 0.165706 -0.375593
v 0.025235 0.332038 0.375746
v 0.025224 0.165706 0.375593
v -0.331110 0.165667 -0.191166
v -0.338015 0.166002 0.000000
v -0.168597 0.164135 0.292019
v 0.169008 0.166002 0.292730
v 0.337194 0.164135 0.000000
v 0.169008 0.166002 -0.292730
v 0.148186 -0.219866 -0.256665
v 0.283189 -0.236908 0.000000
v 0.148186 -0.219866 0.256665
v -0.296372 -0.219866 0.000000
v -0.141595 -0.236908 -0.245249
v -0.168597 0.164135 -0.292019
v -0.338023 0.332038 0.000000
v -0.077490 0.255512 -0.134217
v 0.154980 0.255512 0.000000
v -0.077490 0.255512 0.134217
v 0.042339 -0.603018 0.000000
v -0.021170 -0.603018 -0.036667
v -0.021170 -0.603018 0.036667
v 0.143777 0.399280 -0.249029
v 0.287553 0.399280 0.000000
v -0.143777 0.399280 -0.249029
v -0.287553 0.399280 0.000000
v -0.143777 0.399280 0.249029
v 0.143777 0.399280 0.249029
v 0.104699 -0.454654 -0.181344
v -0.096778 -0.465879 -0.167624
v 0.193556 -0.465879 0.000000
v 0.104699 -0.454654 0.181344
v -0.096778 -0.465879 0.167624
v -0.209398 -0.454654 0.000000
vn 0.5015 -0.0027 -0.8652
vn -0.0480 0.9918 -0.1185
vn -0.0000 1.0000 -0.0000
vn -0.4966 -0.0066 0.8680
vn 0.4609 -0.3879 0.7982
vn -0.5034 -0.0066 -0.8640
vn 0.7559 0.6547 -0.0000
vn -0.5227 -0.1518 -0.8389
vn -0.3288 0.0326 0.9438
vn -0.4652 -0.1518 0.8721
vn 0.0300 0.0007 -0.9996
vn 0.9879 -0.1518 -0.0332
vn 0.5147 -0.1325 -0.8471
vn -0.5134 -0.0880 -0.8536
vn -0.9976 -0.0684 -0.0117
vn 0.4979 -0.1242 0.8583
vn 0.4887 -0.0684 0.8698
vn 0.8660 -0.0000 -0.5000
vn -0.9847 -0.0281 -0.1720
vn -0.8745 -0.0725 0.4796
vn 0.8660 -0.0000 0.5000
vn -0.4408 -0.1911 0.8770
vn 0.5000 -0.0000 -0.8660
vn -0.0062 -0.9914 -0.1309
vn -0.0002 1.0000 0.0095
vn 0.1255 0.9885 0.0838
vn -0.0199 -0.9997 -0.0132
vn 0.4985 -0.0027 -0.8669
vn -0.1634 -0.9863 0.0226
vn -0.4826 -0.0880 -0.8714
vn -0.4652 -0.1518 -0.8721
vn 0.0102 -0.9998 0.0141
vn 0.5253 -0.1656 0.8346
vn 0.5089 -0.0684 0.8581
vn 0.0199 0.9997 -0.0132
vn -0.0197 -0.9998 0.0010
vn 0.9799 -0.1911 0.0567
vn 0.9960 -0.0880 0.0178
vn 0.9879 -0.1518 0.0332
vn -0.1059 -0.9922 -0.0664
vn -0.5391 -0.1911 0.8203
vn -0.5134 -0.0880 0.8536
vn -0.5227 -0.1518 0.8389
vn -0.5034 -0.0066 0.8640
vn -0.9855 -0.1656 0.0376
vn -0.9976 -0.0684 0.0117
vn -0.9909 -0.1325 0.0222
vn -1.0000 -0.0027 0.0017
vn -0.8321 -0.1379 -0.5372
vn -0.5000 -0.0000 0.8660
vn -0.8226 -0.1757 0.5409
vn 0.0620 -0.9977 -0.0270
vn -0.0076 -0.9977 -0.0672
vn -0.0076 -0.9977 0.0672
vn 0.0620 -0.9977 0.0270
vn -0.0544 -0.9977 -0.0402
vn -0.0544 -0.9977 0.0402
vn -0.0492 -0.1379 0.9892
vn -0.0000 -0.0000 1.0000
vn 0.9999 -0.0049 0.0117
vn 0.4993 -0.0008 0.8664
vn -0.9993 -0.0009 -0.0361
vn -0.9856 -0.1651 -0.0365
vn 0.4737 -0.1442 0.8688
vn -0.4804 -0.0959 0.8718
vn 0.9953 -0.0959 0.0141
vn 0.5097 -0.0684 -0.8576
vn 0.5264 -0.1801 -0.8309
vn 0.9751 -0.2128 -0.0627
vn 0.4564 -0.1801 0.8713
vn -0.9746 -0.2125 -0.0709
vn -0.5159 -0.2131 -0.8297
vn 0.4259 -0.2125 -0.8795
vn 0.4879 -0.0684 -0.8702
vn 0.4612 -0.1651 -0.8718
vn -0.4606 -0.2131 -0.8617
vn -0.5273 -0.0049 -0.8496
vn 0.5438 -0.1440 0.8268
vn 0.5529 -0.0314 0.8326
vn 0.9988 -0.0367 -0.0321
vn -0.0408 0.9894 0.1392
vn -0.8642 -0.0403 -0.5015
vn 0.0002 -1.0000 0.0095
vn -0.1145 0.9915 -0.0611
vn 0.0373 -0.9893 0.1411
vn 0.0991 0.9948 -0.0241
vn -0.0718 -0.9965 0.0422
vn 0.0409 -0.9890 -0.1424
vn 0.0044 0.9915 0.1297
vn -0.0704 0.9948 -0.0738
vn 0.0973 -0.9906 -0.0958
vn 0.0901 -0.9949 0.0462
vn 0.0310 -0.9937 -0.1077
vn 0.8397 -0.0865 0.5360
vn -0.8776 -0.0423 -0.4775
vn 0.0958 -0.9939 0.0546
vn -0.0102 0.9998 0.0141
vn -0.5000 -0.0000 -0.8660
vn 0.0213 -0.9997 -0.0106
vn -0.4825 -0.1149 0.8683
vn -0.8660 -0.0004 0.5000
vn 0.1028 -0.9890 0.1066
vn -0.0000 -0.0000 -1.0000
vn -0.8841 -0.0865 0.4592
vn -0.0000 -1.0000 -0.0000
vn -0.3779 0.6547 -0.6546
vn -0.9217 -0.3879 -0.0000
vn -0.3779 0.6547 0.6546
vn 0.4609 -0.3879 -0.7982
vn 0.0496 -0.9951 -0.0859
vn 0.0496 -0.9951 0.0859
vn -0.0992 -0.9951 -0.0000
vn 1.0000 -0.0000 -0.0000
vn -0.4975 0.0993 0.8617
vn -0.4975 0.0993 -0.8617
vn -0.0571 -0.1757 -0.9828
vn -0.8660 -0.0000 -0.5000
vn 0.9951 0.0993 -0.0000
vn 0.8813 -0.1379 -0.4520
vn -0.8660 -0.0000 0.5000
vn 0.8797 -0.1757 0.4419
vn 0.5000 -0.0010 -0.8660
vn -0.0260 0.9947 -0.0994
vn -0.5000 -0.0027 0.8660
vn -0.5000 -0.0027 -0.8660
vn -0.5084 -0.1390 -0.8498
vn -0.4818 -0.1390 0.8652
vn 0.3433 -0.0281 -0.9388
vn 0.9902 -0.1390 -0.0153
vn 0.5032 -0.1410 -0.8526
vn -0.5013 -0.0764 -0.8619
vn -0.9971 -0.0766 -0.0013
vn 0.8523 -0.0423 0.5213
vn 0.4974 -0.0766 0.8642
vn -0.8806 0.0007 -0.4738
vn -0.8857 -0.0749 0.4581
vn -0.4648 -0.1724 0.8685
vn -0.0046 -0.9922 -0.1249
vn -0.0089 0.9998 0.0176
vn 0.1101 0.9915 0.0686
vn -0.0144 -0.9999 -0.0081
vn -0.1316 -0.9906 0.0364
vn -0.4958 -0.0764 -0.8651
vn -0.4818 -0.1390 -0.8652
vn 0.0081 -1.0000 0.0049
vn 0.5093 -0.1776 0.8421
vn 0.4997 -0.0766 0.8628
vn 0.0132 0.9999 -0.0069
vn -0.0083 -1.0000 0.0045
vn 0.9845 -0.1724 0.0317
vn 0.9971 -0.0764 0.0032
vn 0.9902 -0.1390 0.0153
vn -0.1102 -0.9914 -0.0708
vn -0.5197 -0.1724 0.8368
vn -0.5013 -0.0764 0.8619
vn -0.5084 -0.1390 0.8498
vn -0.9839 -0.1776 0.0200
vn -0.9971 -0.0766 0.0013
vn -0.9900 -0.1410 0.0095
vn -1.0000 -0.0010 -0.0000
vn -0.8226 -0.1757 -0.5409
vn -0.8321 -0.1379 0.5372
vn -0.0571 -0.1757 0.9828
vn 0.9992 0.0210 0.0353
vn 0.5000 -0.0000 0.8660
vn -0.9994 -0.0000 -0.0353
vn -0.9895 -0.1442 -0.0105
vn 0.4851 -0.1539 0.8608
vn -0.4958 -0.0821 0.8645
vn 0.9952 -0.0975 0.0124
vn 0.5302 -0.0492 -0.8464
vn 0.5095 -0.1931 -0.8385
vn 0.9856 -0.1691 -0.0047
vn 0.4714 -0.1931 0.8605
vn -0.9830 -0.1802 -0.0358
vn -0.4743 -0.1657 -0.8646
vn 0.4605 -0.1802 -0.8692
vn 0.4979 -0.0781 -0.8637
vn 0.4856 -0.1442 -0.8622
vn -0.5116 -0.1657 -0.8431
vn -0.5303 -0.0009 -0.8478
vn 0.5320 -0.1545 0.8325
vn 0.5303 -0.0000 0.8478
vn 1.0000 -0.0049 -0.0000
vn -0.0434 0.9876 0.1509
vn -0.8566 -0.0429 -0.5142
vn 0.0100 -0.9998 0.0185
vn -0.1251 0.9901 -0.0640
vn 0.0662 -0.9842 0.1643
vn 0.1088 0.9937 -0.0270
vn -0.0794 -0.9956 0.0495
vn 0.0382 -0.9908 -0.1300
vn 0.0098 0.9885 0.1506
vn -0.0778 0.9937 -0.0807
vn 0.1013 -0.9863 -0.1302
vn 0.0825 -0.9956 0.0440
vn 0.0287 -0.9948 -0.0979
vn 0.8233 -0.0892 0.5606
vn -0.8669 -0.0382 -0.4970
vn 0.1105 -0.9922 0.0585
vn -0.0081 1.0000 0.0049
vn -0.0000 0.1495 -0.9888
vn 0.0142 -0.9999 -0.0085
vn -0.0515 -0.0933 0.9943
vn -0.8679 -0.0015 0.4968
vn 0.0935 -0.9908 0.0980
vn -0.8971 -0.0892 0.4327
vn -0.0492 -0.1379 -0.9892
vn 0.8797 -0.1757 -0.4419
vn 0.8813 -0.1379 0.4520
vt 0.185525 0.605397
vt 0.209507 0.628515
vt 0.188472 0.625550
vt 0.156632 0.374812
vt 0.147467 0.392887
vt 0.152089 0.366755
vt 0.208387 0.532956
vt 0.220237 0.509819
vt 0.226489 0.516170
vt 0.212065 0.438495
vt 0.185739 0.467676
vt 0.183871 0.439609
vt 0.227852 0.133718
vt 0.164366 0.178148
vt 0.175998 0.140937
vt 0.204672 0.415830
vt 0.208463 0.393294
vt 0.215810 0.394111
vt 0.206291 0.556746
vt 0.178393 0.581529
vt 0.180393 0.555000
vt 0.094403 0.888840
vt 0.180392 0.866905
vt 0.214025 0.888840
vt 0.146383 0.557461
vt 0.124541 0.579906
vt 0.118565 0.565062
vt 0.178912 0.373102
vt 0.152099 0.366749
vt 0.182861 0.366501
vt 0.154633 0.439814
vt 0.123036 0.460621
vt 0.122416 0.440578
vt 0.139270 0.529138
vt 0.110077 0.543917
vt 0.132142 0.524738
vt 0.146494 0.331338
vt 0.116727 0.358729
vt 0.104146 0.336838
vt 0.147682 0.615296
vt 0.120774 0.632975
vt 0.128001 0.616259
vt 0.149856 0.581487
vt 0.178587 0.497627
vt 0.141765 0.499386
vt 0.180036 0.638762
vt 0.159871 0.628155
vt 0.184566 0.632029
vt 0.179785 0.393127
vt 0.151796 0.415942
vt 0.155377 0.393689
vt 0.185459 0.549748
vt 0.200928 0.548913
vt 0.123606 0.586627
vt 0.124428 0.416362
vt 0.146898 0.410245
vt 0.159832 0.444223
vt 0.202915 0.530637
vt 0.102142 0.455325
vt 0.097897 0.439510
vt 0.146232 0.359127
vt 0.115032 0.367949
vt 0.095283 0.591425
vt 0.089864 0.575073
vt 0.100998 0.590336
vt 0.178782 0.606998
vt 0.114856 0.548860
vt 0.112184 0.567062
vt 0.177863 0.528748
vt 0.200054 0.579640
vt 0.082934 0.558593
vt 0.070784 0.540091
vt 0.088242 0.555378
vt 0.182295 0.415459
vt 0.185958 0.392445
vt 0.187889 0.410399
vt 0.086063 0.381916
vt 0.112967 0.392878
vt 0.090860 0.405015
vt 0.178196 0.446459
vt 0.187387 0.497434
vt 0.185898 0.529047
vt 0.098020 0.627417
vt 0.114368 0.654155
vt 0.088129 0.642832
vt 0.154189 0.633905
vt 0.183083 0.663868
vt 0.150059 0.659679
vt 0.083839 0.577380
vt 0.102844 0.422552
vt 0.123395 0.422477
vt 0.116007 0.482576
vt 0.091667 0.468345
vt 0.153706 0.464786
vt 0.189524 0.497078
vt 0.151101 0.492936
vt 0.206813 0.464608
vt 0.226974 0.645616
vt 0.212361 0.601118
vt 0.221613 0.485320
vt 0.209883 0.370871
vt 0.222517 0.351070
vt 0.058792 0.553278
vt 0.066301 0.547212
vt 0.110311 0.724005
vt 0.195300 0.712531
vt 0.195300 0.724005
vt 0.084047 0.465426
vt 0.090148 0.438039
vt 0.091699 0.610496
vt 0.067023 0.372635
vt 0.226003 0.395564
vt 0.081411 0.409265
vt 0.221137 0.439388
vt 0.215778 0.346861
vt 0.189386 0.338811
vt 0.200768 0.409483
vt 0.094053 0.518784
vt 0.121098 0.395568
vt 0.161326 0.459807
vt 0.156953 0.332755
vt 0.152531 0.609979
vt 0.124176 0.608864
vt 0.102021 0.624186
vt 0.099377 0.610217
vt 0.095307 0.342890
vt 0.088433 0.375076
vt 0.070547 0.366291
vt 0.106288 0.418188
vt 0.101185 0.406411
vt 0.151067 0.587491
vt 0.203931 0.370050
vt 0.206633 0.634764
vt 0.192806 0.662480
vt 0.184574 0.632034
vt 0.117494 0.625221
vt 0.177632 0.459605
vt 0.111164 0.376672
vt 0.129756 0.499550
vt 0.159431 0.324767
vt 0.143208 0.327914
vt 0.142204 0.323357
vt 0.214783 0.338662
vt 0.196258 0.333010
vt 0.197580 0.328239
vt 0.090714 0.340736
vt 0.076454 0.350742
vt 0.074831 0.345926
vt 0.173193 0.588453
vt 0.115021 0.367946
vt 0.179799 0.330863
vt 0.163658 0.327870
vt 0.164193 0.323690
vt 0.212480 0.343126
vt 0.193165 0.337159
vt 0.194983 0.332525
vt 0.127016 0.865350
vt 0.152976 0.807097
vt 0.146947 0.168583
vt 0.128444 0.138350
vt 0.163879 0.137443
vt 0.139269 0.768598
vt 0.105100 0.217557
vt 0.163170 0.178119
vt 0.201835 0.216200
vt 0.166337 0.767739
vt 0.060062 0.133433
vt 0.126583 0.175130
vt 0.069742 0.703479
vt 0.110795 0.680394
vt 0.151313 0.704404
vt 0.196694 0.678031
vt 0.156042 0.701815
vt 0.115119 0.678501
vt 0.158525 0.704672
vt 0.199017 0.680618
vt 0.240095 0.703659
vt 0.240163 0.274631
vt 0.200174 0.301237
vt 0.160550 0.274089
vt 0.134637 0.275301
vt 0.098283 0.299040
vt 0.062678 0.274191
vt 0.108913 0.301839
vt 0.148837 0.275135
vt 0.188527 0.302185
vt 0.111618 0.736814
vt 0.196607 0.725340
vt 0.196607 0.736814
vt 0.235977 0.642778
vt 0.192887 0.239557
vt 0.110982 0.252863
vt 0.108693 0.239557
vt 0.196607 0.737232
vt 0.111618 0.748706
vt 0.111618 0.737232
vt 0.222855 0.598936
vt 0.108693 0.225670
vt 0.190597 0.238976
vt 0.110982 0.238976
vt 0.082517 0.611067
vt 0.075104 0.579741
vt 0.215779 0.561469
vt 0.108693 0.266749
vt 0.190597 0.253444
vt 0.192887 0.266749
vt 0.232562 0.483088
vt 0.058793 0.379257
vt 0.202877 0.213614
vt 0.075657 0.581864
vt 0.110311 0.712531
vt 0.232563 0.352604
vt 0.088828 0.441309
vt 0.220155 0.651700
vt 0.113369 0.321777
vt 0.116524 0.325592
vt 0.100276 0.331859
vt 0.188982 0.328686
vt 0.188027 0.333737
vt 0.169894 0.325404
vt 0.116618 0.325819
vt 0.116988 0.330872
vt 0.100365 0.332088
vt 0.140460 0.323299
vt 0.141596 0.327782
vt 0.124333 0.326369
vt 0.095842 0.331731
vt 0.097469 0.336560
vt 0.077734 0.340719
vt 0.106557 0.216362
vt 0.129362 0.174581
vt 0.164747 0.176647
vt 0.065177 0.134233
vt 0.112585 0.138489
vt 0.124798 0.171764
vt 0.111618 0.725340
vt 0.190597 0.252863
vt 0.196607 0.748706
vt 0.216504 0.555261
vt 0.192887 0.225670
vt 0.235977 0.520893
vt 0.110982 0.253444
vt 0.079542 0.641724
vt 0.223015 0.436263
s 0
usemtl マテリアル
f 34/1/1 4/2/1 20/3/1
f 15/4/2 92/5/2 86/6/2
f 12/7/3 111/8/3 57/9/3
f 52/10/4 23/11/4 54/12/4
f 46/13/5 117/14/5 115/15/5
f 8/16/3 71/17/3 42/18/3
f 37/19/6 19/20/6 39/21/6
f 52/22/7 112/23/7 37/24/7
f 38/25/8 30/26/8 40/27/8
f 21/28/9 86/29/9 85/30/9
f 53/31/10 28/32/10 55/33/10
f 18/34/11 76/35/11 90/36/11
f 48/37/12 26/38/12 50/39/12
f 33/40/13 25/41/13 35/42/13
f 39/21/14 13/43/14 38/25/14
f 59/44/15 18/34/15 58/45/15
f 20/46/16 84/47/16 83/48/16
f 44/49/17 16/50/17 43/51/17
f 37/19/18 110/52/18 79/53/18
f 13/43/19 81/54/19 30/26/19
f 16/50/20 73/55/20 93/56/20
f 54/12/21 91/57/21 53/31/21
f 12/7/3 79/53/3 80/58/3
f 55/33/22 9/59/22 51/60/22
f 15/61/23 68/62/23 26/38/23
f 1/63/24 77/64/24 78/65/24
f 20/3/25 104/66/25 34/1/25
f 29/67/26 109/68/26 76/35/26
f 24/69/27 110/52/27 39/21/27
f 2/70/28 34/1/28 19/20/28
f 11/71/29 74/72/29 75/73/29
f 18/34/30 39/21/30 38/25/30
f 29/67/31 38/25/31 40/27/31
f 22/74/32 102/75/32 98/76/32
f 5/77/33 45/78/33 41/79/33
f 15/4/34 44/49/34 43/51/34
f 23/11/35 101/80/35 54/12/35
f 24/69/36 100/81/36 99/82/36
f 3/83/37 50/84/37 46/85/37
f 14/86/38 49/87/38 48/88/38
f 25/41/39 48/88/39 50/84/39
f 11/71/40 77/64/40 36/89/40
f 7/90/41 55/33/41 51/60/41
f 16/50/42 54/12/42 53/31/42
f 27/91/43 53/31/43 55/33/43
f 22/74/44 52/10/44 54/12/44
f 9/59/45 60/92/45 56/93/45
f 17/94/46 59/95/46 58/96/46
f 28/32/47 58/96/47 60/92/47
f 10/97/48 59/95/48 23/11/48
f 47/98/3 4/2/3 32/99/3
f 32/99/3 2/70/3 37/19/3
f 37/19/3 12/7/3 57/9/3
f 57/100/3 10/97/3 52/10/3
f 52/10/3 8/16/3 42/18/3
f 42/18/3 6/101/3 47/102/3
f 36/89/49 129/103/49 56/104/49
f 47/105/50 120/106/50 37/107/50
f 51/60/51 129/108/51 128/109/51
f 36/89/52 1/63/52 31/110/52
f 31/110/53 3/83/53 46/85/53
f 46/111/54 5/77/54 41/79/54
f 41/79/55 7/90/55 51/60/55
f 51/60/56 9/59/56 56/93/56
f 56/104/57 11/71/57 36/89/57
f 47/102/21 123/112/21 42/18/21
f 51/60/58 127/113/58 41/79/58
f 42/18/59 122/114/59 52/10/59
f 66/115/60 85/30/60 103/116/60
f 102/75/61 97/117/61 98/76/61
f 100/81/62 80/58/62 99/82/62
f 108/118/63 90/36/63 76/35/63
f 92/5/64 73/55/64 107/119/64
f 101/80/65 88/120/65 91/57/65
f 103/116/66 86/29/66 94/121/66
f 104/66/67 84/47/67 95/122/67
f 105/123/68 62/124/68 61/125/68
f 106/126/69 65/127/69 64/128/69
f 107/119/70 70/129/70 69/130/70
f 74/72/71 76/35/71 75/73/71
f 109/68/72 78/65/72 77/64/72
f 81/54/73 61/125/73 78/65/73
f 82/131/74 104/66/74 95/122/74
f 82/131/75 105/123/75 81/54/75
f 75/73/76 109/68/76 77/64/76
f 99/82/77 79/53/77 110/52/77
f 68/62/78 92/5/78 107/119/78
f 72/132/79 102/75/79 85/30/79
f 67/133/80 103/134/80 83/135/80
f 35/42/81 63/136/81 105/123/81
f 23/11/82 88/120/82 87/137/82
f 21/28/83 102/75/83 44/49/83
f 26/38/84 106/126/84 50/39/84
f 26/138/85 107/119/85 45/78/85
f 45/78/18 69/130/18 41/79/18
f 58/45/86 90/36/86 89/139/86
f 60/140/59 74/141/59 56/142/59
f 17/94/87 91/57/87 88/120/87
f 31/110/88 62/124/88 3/83/88
f 30/26/89 109/68/89 40/27/89
f 43/51/90 93/56/90 92/5/90
f 58/143/59 108/144/59 60/145/59
f 1/63/91 61/125/91 31/110/91
f 15/61/92 94/121/92 86/29/92
f 57/146/59 100/147/59 59/148/59
f 33/40/93 84/47/93 14/86/93
f 25/41/94 62/124/94 63/136/94
f 6/101/3 66/115/3 47/102/3
f 19/20/95 82/131/95 13/43/95
f 5/77/96 64/128/96 65/127/96
f 19/20/97 104/66/97 96/149/97
f 4/2/98 83/135/98 20/3/98
f 47/98/3 67/133/3 4/2/3
f 20/46/99 103/134/99 49/87/99
f 26/138/100 65/127/100 68/150/100
f 8/16/101 98/76/101 97/117/101
f 41/79/102 70/129/102 7/90/102
f 50/151/103 64/152/103 46/153/103
f 6/101/3 71/17/3 72/132/3
f 49/154/103 94/155/103 48/156/103
f 33/40/21 105/123/21 95/122/21
f 27/91/104 70/129/104 73/55/104
f 112/23/3 114/157/3 113/158/3
f 115/159/105 117/160/105 116/161/105
f 47/162/106 114/157/106 52/22/106
f 36/163/107 117/164/107 51/165/107
f 47/166/108 112/23/108 113/158/108
f 46/167/109 116/168/109 36/163/109
f 119/169/3 118/170/3 120/171/3
f 120/172/3 121/173/3 122/174/3
f 122/175/3 123/176/3 119/177/3
f 125/178/110 124/179/110 126/180/110
f 126/181/111 127/182/111 128/183/111
f 128/184/112 129/185/112 125/186/112
f 37/187/113 122/188/113 52/189/113
f 32/99/18 119/190/18 47/98/18
f 36/191/114 126/192/114 46/193/114
f 52/194/98 119/195/98 47/196/98
f 37/19/103 118/197/103 32/99/103
f 51/198/115 126/199/115 128/200/115
f 36/89/116 124/201/116 125/202/116
f 57/9/117 120/203/117 37/19/117
f 51/204/118 125/205/118 36/206/118
f 46/85/119 124/201/119 31/110/119
f 52/10/120 121/207/120 57/100/120
f 46/111/121 127/113/121 126/208/121
f 34/1/122 32/99/122 4/2/122
f 15/4/123 43/51/123 92/5/123
f 12/7/3 80/58/3 111/8/3
f 52/10/124 10/97/124 23/11/124
f 46/13/5 51/209/5 117/14/5
f 8/16/3 97/117/3 71/17/3
f 37/19/125 2/70/125 19/20/125
f 52/22/7 114/157/7 112/23/7
f 38/25/126 13/43/126 30/26/126
f 21/28/50 15/4/50 86/29/50
f 53/31/127 17/94/127 28/32/127
f 18/34/128 29/67/128 76/35/128
f 48/37/129 15/61/129 26/38/129
f 33/40/130 14/86/130 25/41/130
f 39/21/131 19/20/131 13/43/131
f 59/44/132 24/69/132 18/34/132
f 20/46/133 14/86/133 84/47/133
f 44/49/134 22/74/134 16/50/134
f 37/19/18 39/21/18 110/52/18
f 13/43/135 82/131/135 81/54/135
f 16/50/136 27/91/136 73/55/136
f 54/12/21 101/80/21 91/57/21
f 12/7/3 37/19/3 79/53/3
f 55/33/137 28/32/137 9/59/137
f 15/61/23 86/6/23 68/62/23
f 1/63/138 36/89/138 77/64/138
f 20/3/139 83/48/139 104/66/139
f 29/67/140 40/27/140 109/68/140
f 24/69/141 99/82/141 110/52/141
f 2/70/122 32/99/122 34/1/122
f 11/71/142 56/104/142 74/72/142
f 18/34/143 24/69/143 39/21/143
f 29/67/144 18/34/144 38/25/144
f 22/74/145 44/49/145 102/75/145
f 5/77/146 26/138/146 45/78/146
f 15/4/147 21/28/147 44/49/147
f 23/11/148 87/137/148 101/80/148
f 24/69/149 59/44/149 100/81/149
f 3/83/150 25/41/150 50/84/150
f 14/86/151 20/46/151 49/87/151
f 25/41/152 14/86/152 48/88/152
f 11/71/153 75/73/153 77/64/153
f 7/90/154 27/91/154 55/33/154
f 16/50/155 22/74/155 54/12/155
f 27/91/156 16/50/156 53/31/156
f 22/74/124 8/16/124 52/10/124
f 9/59/157 28/32/157 60/92/157
f 17/94/158 23/11/158 59/95/158
f 28/32/159 17/94/159 58/96/159
f 10/97/160 57/100/160 59/95/160
f 36/89/161 125/210/161 129/103/161
f 47/105/50 119/211/50 120/106/50
f 51/60/162 56/93/162 129/108/162
f 47/102/21 119/212/21 123/112/21
f 51/60/163 128/213/163 127/113/163
f 42/18/59 123/112/59 122/114/59
f 66/115/164 72/132/164 85/30/164
f 102/75/165 71/17/165 97/117/165
f 100/81/166 111/8/166 80/58/166
f 108/118/167 89/139/167 90/36/167
f 92/5/168 93/56/168 73/55/168
f 101/80/169 87/137/169 88/120/169
f 103/116/170 85/30/170 86/29/170
f 104/66/171 83/48/171 84/47/171
f 105/123/172 63/136/172 62/124/172
f 106/126/173 68/150/173 65/127/173
f 107/119/174 73/55/174 70/129/174
f 74/72/175 108/118/175 76/35/175
f 109/68/176 81/54/176 78/65/176
f 81/54/177 105/123/177 61/125/177
f 82/131/178 96/149/178 104/66/178
f 82/131/179 95/122/179 105/123/179
f 75/73/180 76/35/180 109/68/180
f 99/82/181 80/58/181 79/53/181
f 68/62/182 86/6/182 92/5/182
f 72/132/183 71/17/183 102/75/183
f 67/133/184 66/214/184 103/134/184
f 35/42/185 25/41/185 63/136/185
f 23/11/186 17/94/186 88/120/186
f 21/28/187 85/30/187 102/75/187
f 26/38/188 68/150/188 106/126/188
f 26/138/189 68/62/189 107/119/189
f 45/78/18 107/119/18 69/130/18
f 58/45/190 18/34/190 90/36/190
f 60/215/59 108/216/59 74/217/59
f 17/94/191 53/31/191 91/57/191
f 31/110/192 61/125/192 62/124/192
f 30/26/193 81/54/193 109/68/193
f 43/51/194 16/50/194 93/56/194
f 58/218/59 89/219/59 108/220/59
f 1/63/195 78/65/195 61/125/195
f 15/61/196 48/37/196 94/121/196
f 57/221/59 111/222/59 100/223/59
f 33/40/197 95/122/197 84/47/197
f 25/41/198 3/83/198 62/124/198
f 6/101/3 72/132/3 66/115/3
f 19/20/199 96/149/199 82/131/199
f 5/77/200 46/111/200 64/128/200
f 19/20/201 34/1/201 104/66/201
f 4/2/202 67/133/202 83/135/202
f 47/98/3 66/214/3 67/133/3
f 20/46/203 83/135/203 103/134/203
f 26/138/204 5/77/204 65/127/204
f 8/16/205 22/74/205 98/76/205
f 41/79/206 69/130/206 70/129/206
f 50/224/103 106/225/103 64/226/103
f 6/101/3 42/18/3 71/17/3
f 49/227/103 103/228/103 94/229/103
f 33/40/21 35/42/21 105/123/21
f 27/91/207 7/90/207 70/129/207
f 47/162/106 113/158/106 114/157/106
f 36/230/107 116/231/107 117/232/107
f 47/166/108 37/24/108 112/23/108
f 46/233/109 115/234/109 116/235/109
f 37/187/113 120/236/113 122/188/113
f 32/99/18 118/197/18 119/190/18
f 36/191/114 125/237/114 126/192/114
f 52/194/98 122/238/98 119/195/98
f 37/19/103 120/239/103 118/197/103
f 51/198/115 46/240/115 126/199/115
f 36/89/208 31/110/208 124/201/208
f 57/9/117 121/241/117 120/203/117
f 51/204/118 128/242/118 125/205/118
f 46/85/209 126/243/209 124/201/209
f 52/10/120 122/244/120 121/207/120
f 46/111/210 41/79/210 127/113/210
