# Blender 5.1.2
# www.blender.org
mtllib player_head.mtl
o Cube
v 0.685584 0.139751 -0.458183
v 0.505100 0.733776 -0.458182
v -0.685584 0.139751 -0.458183
v -0.505099 0.733776 -0.458183
v 0.249905 0.328498 0.458183
v 0.184116 0.545029 0.458182
v -0.249905 0.328499 0.458182
v -0.184116 0.545029 0.458182
vn -0.0000 -0.9794 0.2017
vn -0.8899 0.2704 0.3674
vn -0.0000 -0.0000 1.0000
vn -0.0000 0.9794 0.2017
vn -0.0000 -0.0000 -1.0000
vn 0.8899 0.2704 0.3674
vt 0.625000 0.500000
vt 0.875000 0.500000
vt 0.875000 0.750000
vt 0.625000 0.750000
vt 0.375000 0.750000
vt 0.625000 1.000000
vt 0.375000 1.000000
vt 0.375000 0.000000
vt 0.625000 0.000000
vt 0.625000 0.250000
vt 0.375000 0.250000
vt 0.125000 0.500000
vt 0.375000 0.500000
vt 0.125000 0.750000
s 0
usemtl Material
f 1/1/1 5/2/1 7/3/1 3/4/1
f 4/5/2 3/4/2 7/6/2 8/7/2
f 8/8/3 7/9/3 5/10/3 6/11/3
f 6/12/4 2/13/4 4/5/4 8/14/4
f 2/13/5 1/1/5 3/4/5 4/5/5
f 6/11/6 5/10/6 1/1/6 2/13/6
